<?xml version="1.0" encoding="utf-8"?>

<!-- License Agreement at http://iconmonstr.com/license/ -->

<!DOCTYPE svg PUBLIC "-//W3C//DTD SVG 1.1//EN" "http://www.w3.org/Graphics/SVG/1.1/DTD/svg11.dtd">
<svg version="1.1" xmlns="http://www.w3.org/2000/svg" xmlns:xlink="http://www.w3.org/1999/xlink" x="0px" y="0px"
	 width="512px" height="512px" viewBox="0 0 512 512" enable-background="new 0 0 512 512" xml:space="preserve">
<path id="thumb-10-icon" d="M50,217.433v212.832h107.903V217.433H50z M127.903,400.265H80V247.433h47.903V400.265z M103.856,390.248
	c-6.738,0-12.2-5.462-12.2-12.2s5.462-12.199,12.2-12.199c6.737,0,11.391,5.461,11.391,12.199S110.594,390.248,103.856,390.248z
	 M354.732,203.985c13.209-53.604,20.445-143.906-35.861-143.906c-30.391,0-38.367,27.23-46.242,54.344
	c-19.311,66.487-54.102,96.339-89.726,111.002v32.846c62.465-20.207,101.183-82.104,115.438-127.73
	c6.004-19.222,7.999-45.567,24.4-40.612c20.507,6.195,15.634,73.45-3.009,129.079c18.663,13.503,62.469,31.283,112.309,25.062
	c-1.14,16.812-1.925,24.871-14.397,28.406l-18.624,4.951c-12.901,3.903-7.092,23.506,5.924,19.566l19.264-5.681
	c-3.269,21.466-3.546,25.18-18.062,29.578l-14.783,4.543c-13.042,3.946-6.955,23.475,5.927,19.564l18.154-5.943
	c-2.576,19.377-3.135,24.961-17.185,29.211l-14.48,4.937c-12.9,3.897-7.091,23.511,5.918,19.562l15.311-5.136
	c-4.744,33.357-40.414,37.688-73.832,33.92c-50.232-5.655-66.028-35.895-148.272-36.812v29.621
	c32.891,1.104,54.256,5.021,85.934,18.657c16.921,7.283,34.419,14.816,59.067,17.591c53.211,5.992,90.034-7.604,103.651-58.857
	c9.487-35.705,23.458-114.007,30.444-179.798C434.708,218.771,389.466,218.609,354.732,203.985z"/>
</svg>
